<svg width="105" height="13" viewBox="0 0 105 13" fill="none" xmlns="http://www.w3.org/2000/svg">
<path d="M4.83398 2.18945C4.36133 2.18945 3.93555 2.27148 3.55664 2.43555C3.18164 2.5957 2.86133 2.83008 2.5957 3.13867C2.33398 3.44336 2.13281 3.8125 1.99219 4.24609C1.85156 4.67969 1.78125 5.16797 1.78125 5.71094C1.78125 6.42969 1.89258 7.05469 2.11523 7.58594C2.3418 8.11328 2.67773 8.52148 3.12305 8.81055C3.57227 9.09961 4.13281 9.24414 4.80469 9.24414C5.1875 9.24414 5.54688 9.21289 5.88281 9.15039C6.22266 9.08398 6.55273 9.00195 6.87305 8.9043V9.77148C6.56055 9.88867 6.23242 9.97461 5.88867 10.0293C5.54492 10.0879 5.13672 10.1172 4.66406 10.1172C3.79297 10.1172 3.06445 9.9375 2.47852 9.57812C1.89648 9.21484 1.45898 8.70312 1.16602 8.04297C0.876953 7.38281 0.732422 6.60352 0.732422 5.70508C0.732422 5.05664 0.822266 4.46484 1.00195 3.92969C1.18555 3.39062 1.45117 2.92578 1.79883 2.53516C2.15039 2.14453 2.58008 1.84375 3.08789 1.63281C3.59961 1.41797 4.18555 1.31055 4.8457 1.31055C5.2793 1.31055 5.69727 1.35352 6.09961 1.43945C6.50195 1.52539 6.86523 1.64844 7.18945 1.80859L6.79102 2.65234C6.51758 2.52734 6.2168 2.41992 5.88867 2.33008C5.56445 2.23633 5.21289 2.18945 4.83398 2.18945ZM10.9863 3.47266C11.752 3.47266 12.3203 3.64453 12.6914 3.98828C13.0625 4.33203 13.248 4.88086 13.248 5.63477V10H12.5391L12.3516 9.05078H12.3047C12.125 9.28516 11.9375 9.48242 11.7422 9.64258C11.5469 9.79883 11.3203 9.91797 11.0625 10C10.8086 10.0781 10.4961 10.1172 10.125 10.1172C9.73438 10.1172 9.38672 10.0488 9.08203 9.91211C8.78125 9.77539 8.54297 9.56836 8.36719 9.29102C8.19531 9.01367 8.10938 8.66211 8.10938 8.23633C8.10938 7.5957 8.36328 7.10352 8.87109 6.75977C9.37891 6.41602 10.1523 6.22852 11.1914 6.19727L12.2988 6.15039V5.75781C12.2988 5.20312 12.1797 4.81445 11.9414 4.5918C11.7031 4.36914 11.3672 4.25781 10.9336 4.25781C10.5977 4.25781 10.2773 4.30664 9.97266 4.4043C9.66797 4.50195 9.37891 4.61719 9.10547 4.75L8.80664 4.01172C9.0957 3.86328 9.42773 3.73633 9.80273 3.63086C10.1777 3.52539 10.5723 3.47266 10.9863 3.47266ZM12.2871 6.83594L11.3086 6.87695C10.5078 6.9082 9.94336 7.03906 9.61523 7.26953C9.28711 7.5 9.12305 7.82617 9.12305 8.24805C9.12305 8.61523 9.23438 8.88672 9.45703 9.0625C9.67969 9.23828 9.97461 9.32617 10.3418 9.32617C10.9121 9.32617 11.3789 9.16797 11.7422 8.85156C12.1055 8.53516 12.2871 8.06055 12.2871 7.42773V6.83594ZM22.2246 3.46094C22.9316 3.46094 23.4648 3.64648 23.8242 4.01758C24.1836 4.38477 24.3633 4.97656 24.3633 5.79297V10H23.4023V5.83984C23.4023 5.32031 23.2891 4.93164 23.0625 4.67383C22.8398 4.41211 22.5078 4.28125 22.0664 4.28125C21.4453 4.28125 20.9941 4.46094 20.7129 4.82031C20.4316 5.17969 20.291 5.70898 20.291 6.4082V10H19.3242V5.83984C19.3242 5.49219 19.2734 5.20312 19.1719 4.97266C19.0742 4.74219 18.9258 4.57031 18.7266 4.45703C18.5312 4.33984 18.2832 4.28125 17.9824 4.28125C17.5566 4.28125 17.2148 4.36914 16.957 4.54492C16.6992 4.7207 16.5117 4.98242 16.3945 5.33008C16.2812 5.67383 16.2246 6.09766 16.2246 6.60156V10H15.252V3.57812H16.0371L16.1836 4.48633H16.2363C16.3652 4.26367 16.5273 4.07617 16.7227 3.92383C16.918 3.77148 17.1367 3.65625 17.3789 3.57812C17.6211 3.5 17.8789 3.46094 18.1523 3.46094C18.6406 3.46094 19.0488 3.55273 19.377 3.73633C19.709 3.91602 19.9492 4.19141 20.0977 4.5625H20.1504C20.3613 4.19141 20.6504 3.91602 21.0176 3.73633C21.3848 3.55273 21.7871 3.46094 22.2246 3.46094ZM29.3789 3.46094C30.1797 3.46094 30.8184 3.73633 31.2949 4.28711C31.7715 4.83789 32.0098 5.66602 32.0098 6.77148C32.0098 7.50195 31.9004 8.11523 31.6816 8.61133C31.4629 9.10742 31.1543 9.48242 30.7559 9.73633C30.3613 9.99023 29.8945 10.1172 29.3555 10.1172C29.0156 10.1172 28.7168 10.0723 28.459 9.98242C28.2012 9.89258 27.9805 9.77148 27.7969 9.61914C27.6133 9.4668 27.4609 9.30078 27.3398 9.12109H27.2695C27.2812 9.27344 27.2949 9.45703 27.3105 9.67188C27.3301 9.88672 27.3398 10.0742 27.3398 10.2344V12.8711H26.3613V3.57812H27.1641L27.293 4.52734H27.3398C27.4648 4.33203 27.6172 4.1543 27.7969 3.99414C27.9766 3.83008 28.1953 3.70117 28.4531 3.60742C28.7148 3.50977 29.0234 3.46094 29.3789 3.46094ZM29.209 4.28125C28.7637 4.28125 28.4043 4.36719 28.1309 4.53906C27.8613 4.71094 27.6641 4.96875 27.5391 5.3125C27.4141 5.65234 27.3477 6.08008 27.3398 6.5957V6.7832C27.3398 7.32617 27.3984 7.78516 27.5156 8.16016C27.6367 8.53516 27.834 8.82031 28.1074 9.01562C28.3848 9.21094 28.7559 9.30859 29.2207 9.30859C29.6191 9.30859 29.9512 9.20117 30.2168 8.98633C30.4824 8.77148 30.6797 8.47266 30.8086 8.08984C30.9414 7.70312 31.0078 7.25977 31.0078 6.75977C31.0078 6.00195 30.8594 5.40039 30.5625 4.95508C30.2695 4.50586 29.8184 4.28125 29.209 4.28125ZM39.2461 6.77734C39.2461 7.30469 39.1777 7.77539 39.041 8.18945C38.9043 8.60352 38.707 8.95312 38.4492 9.23828C38.1914 9.52344 37.8789 9.74219 37.5117 9.89453C37.1484 10.043 36.7363 10.1172 36.2754 10.1172C35.8457 10.1172 35.4512 10.043 35.0918 9.89453C34.7363 9.74219 34.4277 9.52344 34.166 9.23828C33.9082 8.95312 33.707 8.60352 33.5625 8.18945C33.4219 7.77539 33.3516 7.30469 33.3516 6.77734C33.3516 6.07422 33.4707 5.47656 33.709 4.98438C33.9473 4.48828 34.2871 4.11133 34.7285 3.85352C35.1738 3.5918 35.7031 3.46094 36.3164 3.46094C36.9023 3.46094 37.4141 3.5918 37.8516 3.85352C38.293 4.11523 38.6348 4.49414 38.877 4.99023C39.123 5.48242 39.2461 6.07812 39.2461 6.77734ZM34.3594 6.77734C34.3594 7.29297 34.4277 7.74023 34.5645 8.11914C34.7012 8.49805 34.9121 8.79102 35.1973 8.99805C35.4824 9.20508 35.8496 9.30859 36.2988 9.30859C36.7441 9.30859 37.1094 9.20508 37.3945 8.99805C37.6836 8.79102 37.8965 8.49805 38.0332 8.11914C38.1699 7.74023 38.2383 7.29297 38.2383 6.77734C38.2383 6.26562 38.1699 5.82422 38.0332 5.45312C37.8965 5.07812 37.6855 4.78906 37.4004 4.58594C37.1152 4.38281 36.7461 4.28125 36.293 4.28125C35.625 4.28125 35.1348 4.50195 34.8223 4.94336C34.5137 5.38477 34.3594 5.99609 34.3594 6.77734ZM49.582 6.77734C49.582 7.30469 49.5137 7.77539 49.377 8.18945C49.2402 8.60352 49.043 8.95312 48.7852 9.23828C48.5273 9.52344 48.2148 9.74219 47.8477 9.89453C47.4844 10.043 47.0723 10.1172 46.6113 10.1172C46.1816 10.1172 45.7871 10.043 45.4277 9.89453C45.0723 9.74219 44.7637 9.52344 44.502 9.23828C44.2441 8.95312 44.043 8.60352 43.8984 8.18945C43.7578 7.77539 43.6875 7.30469 43.6875 6.77734C43.6875 6.07422 43.8066 5.47656 44.0449 4.98438C44.2832 4.48828 44.623 4.11133 45.0645 3.85352C45.5098 3.5918 46.0391 3.46094 46.6523 3.46094C47.2383 3.46094 47.75 3.5918 48.1875 3.85352C48.6289 4.11523 48.9707 4.49414 49.2129 4.99023C49.459 5.48242 49.582 6.07812 49.582 6.77734ZM44.6953 6.77734C44.6953 7.29297 44.7637 7.74023 44.9004 8.11914C45.0371 8.49805 45.248 8.79102 45.5332 8.99805C45.8184 9.20508 46.1855 9.30859 46.6348 9.30859C47.0801 9.30859 47.4453 9.20508 47.7305 8.99805C48.0195 8.79102 48.2324 8.49805 48.3691 8.11914C48.5059 7.74023 48.5742 7.29297 48.5742 6.77734C48.5742 6.26562 48.5059 5.82422 48.3691 5.45312C48.2324 5.07812 48.0215 4.78906 47.7363 4.58594C47.4512 4.38281 47.082 4.28125 46.6289 4.28125C45.9609 4.28125 45.4707 4.50195 45.1582 4.94336C44.8496 5.38477 44.6953 5.99609 44.6953 6.77734ZM52.2363 0.882812V3.16211C52.2363 3.42383 52.2285 3.67773 52.2129 3.92383C52.2012 4.16992 52.1914 4.36133 52.1836 4.49805H52.2363C52.4121 4.20898 52.666 3.96484 52.998 3.76562C53.3301 3.56641 53.7539 3.4668 54.2695 3.4668C55.0742 3.4668 55.7148 3.74609 56.1914 4.30469C56.6719 4.85938 56.9121 5.68555 56.9121 6.7832C56.9121 7.50586 56.8027 8.11523 56.584 8.61133C56.3652 9.10742 56.0566 9.48242 55.6582 9.73633C55.2598 9.99023 54.7891 10.1172 54.2461 10.1172C53.7383 10.1172 53.3203 10.0234 52.9922 9.83594C52.668 9.64453 52.418 9.41211 52.2422 9.13867H52.166L51.9668 10H51.2637V0.882812H52.2363ZM54.1113 4.28125C53.6465 4.28125 53.2773 4.37305 53.0039 4.55664C52.7305 4.73633 52.5332 5.00977 52.4121 5.37695C52.2949 5.74023 52.2363 6.20117 52.2363 6.75977V6.8125C52.2363 7.62109 52.3711 8.24023 52.6406 8.66992C52.9102 9.0957 53.4004 9.30859 54.1113 9.30859C54.709 9.30859 55.1562 9.08984 55.4531 8.65234C55.7539 8.21484 55.9043 7.58984 55.9043 6.77734C55.9043 5.94922 55.7559 5.32617 55.459 4.9082C55.166 4.49023 54.7168 4.28125 54.1113 4.28125ZM61.5293 3.46094C61.6582 3.46094 61.793 3.46875 61.9336 3.48438C62.0742 3.49609 62.1992 3.51367 62.3086 3.53711L62.1855 4.43945C62.0801 4.41211 61.9629 4.39062 61.834 4.375C61.7051 4.35938 61.584 4.35156 61.4707 4.35156C61.2129 4.35156 60.9688 4.4043 60.7383 4.50977C60.5117 4.61133 60.3125 4.75977 60.1406 4.95508C59.9688 5.14648 59.834 5.37891 59.7363 5.65234C59.6387 5.92188 59.5898 6.22266 59.5898 6.55469V10H58.6113V3.57812H59.4199L59.5254 4.76172H59.5664C59.6992 4.52344 59.8594 4.30664 60.0469 4.11133C60.2344 3.91211 60.4512 3.75391 60.6973 3.63672C60.9473 3.51953 61.2246 3.46094 61.5293 3.46094ZM64.4941 3.57812V10H63.5215V3.57812H64.4941ZM64.0195 1.17578C64.1797 1.17578 64.3164 1.22852 64.4297 1.33398C64.5469 1.43555 64.6055 1.5957 64.6055 1.81445C64.6055 2.0293 64.5469 2.18945 64.4297 2.29492C64.3164 2.40039 64.1797 2.45312 64.0195 2.45312C63.8516 2.45312 63.7109 2.40039 63.5977 2.29492C63.4883 2.18945 63.4336 2.0293 63.4336 1.81445C63.4336 1.5957 63.4883 1.43555 63.5977 1.33398C63.7109 1.22852 63.8516 1.17578 64.0195 1.17578ZM68.3496 12.8828C67.5059 12.8828 66.8555 12.7246 66.3984 12.4082C65.9414 12.0957 65.7129 11.6562 65.7129 11.0898C65.7129 10.6875 65.8398 10.3438 66.0938 10.0586C66.3516 9.77344 66.707 9.58398 67.1602 9.49023C66.9922 9.41211 66.8477 9.29492 66.7266 9.13867C66.6094 8.98242 66.5508 8.80273 66.5508 8.59961C66.5508 8.36523 66.6152 8.16016 66.7441 7.98438C66.877 7.80469 67.0781 7.63281 67.3477 7.46875C67.0117 7.33203 66.7383 7.10156 66.5273 6.77734C66.3203 6.44922 66.2168 6.06836 66.2168 5.63477C66.2168 5.17383 66.3125 4.78125 66.5039 4.45703C66.6953 4.12891 66.9727 3.87891 67.3359 3.70703C67.6992 3.53516 68.1387 3.44922 68.6543 3.44922C68.7676 3.44922 68.8809 3.45508 68.9941 3.4668C69.1113 3.47461 69.2227 3.48828 69.3281 3.50781C69.4336 3.52344 69.5254 3.54297 69.6035 3.56641H71.8066V4.19336L70.623 4.33984C70.7402 4.49219 70.8379 4.67578 70.916 4.89062C70.9941 5.10547 71.0332 5.34375 71.0332 5.60547C71.0332 6.24609 70.8164 6.75586 70.3828 7.13477C69.9492 7.50977 69.3535 7.69727 68.5957 7.69727C68.416 7.69727 68.2324 7.68164 68.0449 7.65039C67.8535 7.75586 67.707 7.87305 67.6055 8.00195C67.5078 8.13086 67.459 8.2793 67.459 8.44727C67.459 8.57227 67.4961 8.67188 67.5703 8.74609C67.6484 8.82031 67.7598 8.875 67.9043 8.91016C68.0488 8.94141 68.2227 8.95703 68.4258 8.95703H69.5566C70.2559 8.95703 70.791 9.10352 71.1621 9.39648C71.5371 9.68945 71.7246 10.1172 71.7246 10.6797C71.7246 11.3906 71.4355 11.9355 70.8574 12.3145C70.2793 12.6934 69.4434 12.8828 68.3496 12.8828ZM68.3789 12.1211C68.9102 12.1211 69.3496 12.0664 69.6973 11.957C70.0488 11.8516 70.3105 11.6973 70.4824 11.4941C70.6582 11.2949 70.7461 11.0566 70.7461 10.7793C70.7461 10.5215 70.6875 10.3262 70.5703 10.1934C70.4531 10.0645 70.2812 9.97852 70.0547 9.93555C69.8281 9.88867 69.5508 9.86523 69.2227 9.86523H68.1094C67.8203 9.86523 67.5684 9.91016 67.3535 10C67.1387 10.0898 66.9727 10.2227 66.8555 10.3984C66.7422 10.5742 66.6855 10.793 66.6855 11.0547C66.6855 11.4023 66.832 11.666 67.125 11.8457C67.418 12.0293 67.8359 12.1211 68.3789 12.1211ZM68.6309 6.98828C69.0957 6.98828 69.4453 6.87109 69.6797 6.63672C69.9141 6.40234 70.0312 6.06055 70.0312 5.61133C70.0312 5.13086 69.9121 4.77148 69.6738 4.5332C69.4355 4.29102 69.084 4.16992 68.6191 4.16992C68.1738 4.16992 67.8301 4.29492 67.5879 4.54492C67.3496 4.79102 67.2305 5.15234 67.2305 5.62891C67.2305 6.06641 67.3516 6.40234 67.5938 6.63672C67.8359 6.87109 68.1816 6.98828 68.6309 6.98828ZM75.4746 3.47266C76.2402 3.47266 76.8086 3.64453 77.1797 3.98828C77.5508 4.33203 77.7363 4.88086 77.7363 5.63477V10H77.0273L76.8398 9.05078H76.793C76.6133 9.28516 76.4258 9.48242 76.2305 9.64258C76.0352 9.79883 75.8086 9.91797 75.5508 10C75.2969 10.0781 74.9844 10.1172 74.6133 10.1172C74.2227 10.1172 73.875 10.0488 73.5703 9.91211C73.2695 9.77539 73.0312 9.56836 72.8555 9.29102C72.6836 9.01367 72.5977 8.66211 72.5977 8.23633C72.5977 7.5957 72.8516 7.10352 73.3594 6.75977C73.8672 6.41602 74.6406 6.22852 75.6797 6.19727L76.7871 6.15039V5.75781C76.7871 5.20312 76.668 4.81445 76.4297 4.5918C76.1914 4.36914 75.8555 4.25781 75.4219 4.25781C75.0859 4.25781 74.7656 4.30664 74.4609 4.4043C74.1562 4.50195 73.8672 4.61719 73.5938 4.75L73.2949 4.01172C73.584 3.86328 73.916 3.73633 74.291 3.63086C74.666 3.52539 75.0605 3.47266 75.4746 3.47266ZM76.7754 6.83594L75.7969 6.87695C74.9961 6.9082 74.4316 7.03906 74.1035 7.26953C73.7754 7.5 73.6113 7.82617 73.6113 8.24805C73.6113 8.61523 73.7227 8.88672 73.9453 9.0625C74.168 9.23828 74.4629 9.32617 74.8301 9.32617C75.4004 9.32617 75.8672 9.16797 76.2305 8.85156C76.5938 8.53516 76.7754 8.06055 76.7754 7.42773V6.83594ZM81.8145 9.32031C81.9746 9.32031 82.1387 9.30664 82.3066 9.2793C82.4746 9.25195 82.6113 9.21875 82.7168 9.17969V9.93555C82.6035 9.98633 82.4453 10.0293 82.2422 10.0645C82.043 10.0996 81.8477 10.1172 81.6562 10.1172C81.3164 10.1172 81.0078 10.0586 80.7305 9.94141C80.4531 9.82031 80.2305 9.61719 80.0625 9.33203C79.8984 9.04688 79.8164 8.65234 79.8164 8.14844V4.33984H78.9023V3.86523L79.8223 3.48438L80.209 2.08984H80.7949V3.57812H82.6758V4.33984H80.7949V8.11914C80.7949 8.52148 80.8867 8.82227 81.0703 9.02148C81.2578 9.2207 81.5059 9.32031 81.8145 9.32031ZM89.5547 6.77734C89.5547 7.30469 89.4863 7.77539 89.3496 8.18945C89.2129 8.60352 89.0156 8.95312 88.7578 9.23828C88.5 9.52344 88.1875 9.74219 87.8203 9.89453C87.457 10.043 87.0449 10.1172 86.584 10.1172C86.1543 10.1172 85.7598 10.043 85.4004 9.89453C85.0449 9.74219 84.7363 9.52344 84.4746 9.23828C84.2168 8.95312 84.0156 8.60352 83.8711 8.18945C83.7305 7.77539 83.6602 7.30469 83.6602 6.77734C83.6602 6.07422 83.7793 5.47656 84.0176 4.98438C84.2559 4.48828 84.5957 4.11133 85.0371 3.85352C85.4824 3.5918 86.0117 3.46094 86.625 3.46094C87.2109 3.46094 87.7227 3.5918 88.1602 3.85352C88.6016 4.11523 88.9434 4.49414 89.1855 4.99023C89.4316 5.48242 89.5547 6.07812 89.5547 6.77734ZM84.668 6.77734C84.668 7.29297 84.7363 7.74023 84.873 8.11914C85.0098 8.49805 85.2207 8.79102 85.5059 8.99805C85.791 9.20508 86.1582 9.30859 86.6074 9.30859C87.0527 9.30859 87.418 9.20508 87.7031 8.99805C87.9922 8.79102 88.2051 8.49805 88.3418 8.11914C88.4785 7.74023 88.5469 7.29297 88.5469 6.77734C88.5469 6.26562 88.4785 5.82422 88.3418 5.45312C88.2051 5.07812 87.9941 4.78906 87.709 4.58594C87.4238 4.38281 87.0547 4.28125 86.6016 4.28125C85.9336 4.28125 85.4434 4.50195 85.1309 4.94336C84.8223 5.38477 84.668 5.99609 84.668 6.77734ZM88.3066 0.806641V0.923828C88.2285 1.03711 88.1211 1.17383 87.9844 1.33398C87.8516 1.49023 87.7031 1.65625 87.5391 1.83203C87.375 2.00391 87.209 2.16797 87.041 2.32422C86.877 2.48047 86.7246 2.61523 86.584 2.72852H85.9336V2.58789C86.0586 2.43945 86.1953 2.26172 86.3438 2.05469C86.4922 1.84375 86.6367 1.62891 86.7773 1.41016C86.918 1.1875 87.0352 0.986328 87.1289 0.806641H88.3066ZM94.1543 3.46094C94.2832 3.46094 94.418 3.46875 94.5586 3.48438C94.6992 3.49609 94.8242 3.51367 94.9336 3.53711L94.8105 4.43945C94.7051 4.41211 94.5879 4.39062 94.459 4.375C94.3301 4.35938 94.209 4.35156 94.0957 4.35156C93.8379 4.35156 93.5938 4.4043 93.3633 4.50977C93.1367 4.61133 92.9375 4.75977 92.7656 4.95508C92.5938 5.14648 92.459 5.37891 92.3613 5.65234C92.2637 5.92188 92.2148 6.22266 92.2148 6.55469V10H91.2363V3.57812H92.0449L92.1504 4.76172H92.1914C92.3242 4.52344 92.4844 4.30664 92.6719 4.11133C92.8594 3.91211 93.0762 3.75391 93.3223 3.63672C93.5723 3.51953 93.8496 3.46094 94.1543 3.46094ZM97.1191 3.57812V10H96.1465V3.57812H97.1191ZM96.6445 1.17578C96.8047 1.17578 96.9414 1.22852 97.0547 1.33398C97.1719 1.43555 97.2305 1.5957 97.2305 1.81445C97.2305 2.0293 97.1719 2.18945 97.0547 2.29492C96.9414 2.40039 96.8047 2.45312 96.6445 2.45312C96.4766 2.45312 96.3359 2.40039 96.2227 2.29492C96.1133 2.18945 96.0586 2.0293 96.0586 1.81445C96.0586 1.5957 96.1133 1.43555 96.2227 1.33398C96.3359 1.22852 96.4766 1.17578 96.6445 1.17578ZM104.719 6.77734C104.719 7.30469 104.65 7.77539 104.514 8.18945C104.377 8.60352 104.18 8.95312 103.922 9.23828C103.664 9.52344 103.352 9.74219 102.984 9.89453C102.621 10.043 102.209 10.1172 101.748 10.1172C101.318 10.1172 100.924 10.043 100.564 9.89453C100.209 9.74219 99.9004 9.52344 99.6387 9.23828C99.3809 8.95312 99.1797 8.60352 99.0352 8.18945C98.8945 7.77539 98.8242 7.30469 98.8242 6.77734C98.8242 6.07422 98.9434 5.47656 99.1816 4.98438C99.4199 4.48828 99.7598 4.11133 100.201 3.85352C100.646 3.5918 101.176 3.46094 101.789 3.46094C102.375 3.46094 102.887 3.5918 103.324 3.85352C103.766 4.11523 104.107 4.49414 104.35 4.99023C104.596 5.48242 104.719 6.07812 104.719 6.77734ZM99.832 6.77734C99.832 7.29297 99.9004 7.74023 100.037 8.11914C100.174 8.49805 100.385 8.79102 100.67 8.99805C100.955 9.20508 101.322 9.30859 101.771 9.30859C102.217 9.30859 102.582 9.20508 102.867 8.99805C103.156 8.79102 103.369 8.49805 103.506 8.11914C103.643 7.74023 103.711 7.29297 103.711 6.77734C103.711 6.26562 103.643 5.82422 103.506 5.45312C103.369 5.07812 103.158 4.78906 102.873 4.58594C102.588 4.38281 102.219 4.28125 101.766 4.28125C101.098 4.28125 100.607 4.50195 100.295 4.94336C99.9863 5.38477 99.832 5.99609 99.832 6.77734Z" fill="#FF5959"/>
</svg>
